<svg id="Capa_1" enable-background="new 0 0 512 512" height="512" viewBox="0 0 512 512" width="512" xmlns="http://www.w3.org/2000/svg"><g><g><path d="m338.324 407.643v73.497c0 12.901-10.459 23.36-23.36 23.36h-38.994c-12.901 0-23.36-10.459-23.36-23.36s10.459-23.36 23.36-23.36h15.633v-50.136h46.721z" fill="#ff9bff"/></g><g><path d="m229.603 407.643v73.497c0 12.901-10.459 23.36-23.36 23.36h-38.994c-12.901 0-23.36-10.459-23.36-23.36s10.459-23.36 23.36-23.36h15.633v-50.136h46.721z" fill="#ff9bff"/></g><path d="m374.556 75.788h-20.541c3.715 5.598 5.884 12.311 5.884 19.533 0 19.536-15.837 35.373-35.373 35.373h-137.052c-19.536 0-35.373-15.837-35.373-35.373 0-7.222 2.169-13.935 5.884-19.533h-20.541c-36.051 0-65.277 29.225-65.277 65.277v201.302c0 36.051 29.225 65.277 65.277 65.277h237.112c36.051 0 65.277-29.225 65.277-65.277v-201.303c-.001-36.051-29.226-65.276-65.277-65.276z" fill="#b98eff"/><path d="m374.556 120.537h-25.232c-6.384 6.278-15.137 10.156-24.798 10.156h-137.052c-9.661 0-18.414-3.878-24.798-10.156h-25.232c-11.319 0-20.527 9.208-20.527 20.527v201.302c0 11.319 9.208 20.527 20.527 20.527h237.111c11.319 0 20.527-9.208 20.527-20.527v-201.302c.001-11.318-9.208-20.527-20.526-20.527z" fill="#88f8d8"/><path d="m324.526 59.947h-16.517c-7.521 0-13.535-6.147-13.485-13.668.004-.662-.008-1.329-.038-1.999-.869-19.48-16.525-35.472-35.986-36.7-22.408-1.414-41.023 16.341-41.023 38.445v.147c.029 7.563-5.924 13.775-13.487 13.775h-16.515c-19.536 0-35.373 15.837-35.373 35.373 0 19.536 15.837 35.373 35.373 35.373h137.051c19.536 0 35.373-15.837 35.373-35.373 0-19.536-15.837-35.373-35.373-35.373z" fill="#a4bcff"/><g><g><path d="m314.964 512h-38.994c-17.017 0-30.86-13.844-30.86-30.86 0-17.017 13.844-30.86 30.86-30.86h8.134v-42.636c0-4.142 3.357-3.824 7.5-3.824s7.5-.318 7.5 3.824v50.136c0 4.142-3.357 7.5-7.5 7.5h-15.634c-8.745 0-15.86 7.115-15.86 15.86 0 8.746 7.115 15.86 15.86 15.86h38.994c8.745 0 15.86-7.115 15.86-15.86v-73.496c0-4.142 3.357-3.824 7.5-3.824s7.5-.318 7.5 3.824v73.496c0 17.016-13.844 30.86-30.86 30.86z" fill="#e207b9"/></g></g><g><g><path d="m206.242 512h-38.994c-17.017 0-30.86-13.844-30.86-30.86 0-17.017 13.844-30.86 30.86-30.86h8.134v-42.636c0-4.142 3.357-3.818 7.5-3.818s7.5-.324 7.5 3.818v50.136c0 4.142-3.357 7.5-7.5 7.5h-15.634c-8.745 0-15.86 7.115-15.86 15.86 0 8.746 7.115 15.86 15.86 15.86h38.994c8.745 0 15.86-7.115 15.86-15.86v-73.496c0-4.142 3.357-2.881 7.5-2.881s7.5-1.261 7.5 2.881v73.496c.001 17.016-13.843 30.86-30.86 30.86z" fill="#e207b9"/></g></g><path d="m182.882 407.643h46.721v31.216h-46.721z" fill="#e207b9"/><path d="m291.603 407.643h46.721v31.216h-46.721z" fill="#e207b9"/><circle cx="310.019" cy="176.107" fill="#007ea8" r="11.462"/><g><path d="m280.27 214.498h-48.54c-4.143 0-7.5-3.358-7.5-7.5s3.357-7.5 7.5-7.5h48.539c4.143 0 7.5 3.358 7.5 7.5s-3.357 7.5-7.499 7.5z" fill="#007ea8"/></g><circle cx="201.981" cy="176.107" fill="#007ea8" r="11.462"/><circle cx="256" cy="48.458" fill="#2115c2" r="11.771"/><g><path d="m298.531 102.82h-85.062c-4.143 0-7.5-3.358-7.5-7.5s3.357-7.5 7.5-7.5h85.062c4.143 0 7.5 3.358 7.5 7.5s-3.357 7.5-7.5 7.5z" fill="#2115c2"/></g><g><path d="m374.555 415.143h-237.111c-40.129 0-72.776-32.647-72.776-72.777v-201.302c0-40.129 32.647-72.777 72.776-72.777h20.542c4.143 0 3.539 3.358 3.539 7.5s.603 7.5-3.539 7.5h-20.542c-31.858 0-57.776 25.918-57.776 57.777v201.302c0 31.858 25.918 57.777 57.776 57.777h237.112c31.858 0 57.777-25.918 57.777-57.777v-201.302c0-31.858-25.919-57.777-57.777-57.777h-20.541c-4.143 0-3.409-3.358-3.409-7.5s-.734-7.5 3.409-7.5h20.541c40.13 0 72.777 32.647 72.777 72.777v201.302c0 40.13-32.648 72.777-72.778 72.777z" fill="#6d00ca"/></g><g><path d="m374.555 370.393h-237.11c-15.454 0-28.027-12.573-28.027-28.027v-201.302c0-15.454 12.573-28.027 28.027-28.027h25.231c4.143 0 2.744 3.358 2.744 7.5s1.398 7.5-2.744 7.5h-25.231c-7.184 0-13.027 5.844-13.027 13.027v201.301c0 7.183 5.844 13.027 13.027 13.027h237.111c7.184 0 13.027-5.844 13.027-13.027v-201.301c0-7.183-5.844-13.027-13.027-13.027h-25.232c-4.143 0-1.714-3.358-1.714-7.5s-2.428-7.5 1.714-7.5h25.232c15.454 0 28.027 12.573 28.027 28.027v201.301c0 15.455-12.573 28.028-28.028 28.028z" fill="#007ea8"/></g><g><path d="m324.525 138.193h-137.051c-23.641 0-42.873-19.233-42.873-42.873 0-23.641 19.232-42.873 42.873-42.873h16.516c1.573 0 3.052-.614 4.162-1.729 1.184-1.188 1.832-2.792 1.825-4.518l-.001-.176c0-12.659 5.295-24.89 14.527-33.558 9.362-8.79 21.606-13.18 34.469-12.372 23.083 1.457 41.973 20.719 43.005 43.851.036.798.052 1.596.046 2.389-.011 1.648.618 3.199 1.771 4.359 1.123 1.131 2.62 1.753 4.215 1.753h16.518c23.641 0 42.873 19.233 42.873 42.873-.002 23.642-19.234 42.874-42.875 42.874zm-137.051-70.746c-15.369 0-27.873 12.504-27.873 27.873s12.504 27.873 27.873 27.873h137.052c15.369 0 27.873-12.504 27.873-27.873 0-15.37-12.504-27.873-27.873-27.873h-16.518c-5.62 0-10.896-2.195-14.856-6.181-3.989-4.016-6.166-9.355-6.129-15.035.004-.539-.006-1.074-.03-1.612-.696-15.593-13.419-28.572-28.966-29.553-8.685-.555-16.947 2.413-23.257 8.337-6.315 5.93-9.794 13.964-9.794 22.623.001.04.001.079.001.119.021 5.744-2.18 11.128-6.198 15.161-3.946 3.961-9.198 6.142-14.789 6.142h-16.516z" fill="#2115c2"/></g><g><path d="m336.275 253.971h-160.55c-4.143 0-7.5-3.358-7.5-7.5s3.357-7.5 7.5-7.5h160.551c4.143 0 7.5 3.358 7.5 7.5-.001 4.142-3.358 7.5-7.501 7.5z" fill="#007ea8"/></g><g><path d="m336.275 290.891h-160.55c-4.143 0-7.5-3.358-7.5-7.5s3.357-7.5 7.5-7.5h160.551c4.143 0 7.5 3.358 7.5 7.5s-3.358 7.5-7.501 7.5z" fill="#007ea8"/></g><g><path d="m336.275 327.812h-160.55c-4.143 0-7.5-3.358-7.5-7.5s3.357-7.5 7.5-7.5h160.551c4.143 0 7.5 3.358 7.5 7.5s-3.358 7.5-7.501 7.5z" fill="#007ea8"/></g></g></svg>